<svg width="48.000000" height="48.000000" viewBox="0 0 48 48" fill="none" xmlns="http://www.w3.org/2000/svg" xmlns:xlink="http://www.w3.org/1999/xlink">
	<desc>
			Created with Pixso.
	</desc>
	<defs/>
	<rect id="Favicon" rx="10.000000" width="48.000000" height="48.000000" fill="#1C1D20" fill-opacity="1.000000"/>
	<path id="J*" d="M21.25 26.76L21.25 16.45L23.43 16.45L23.43 26.76C23.43 29.56 21.68 31.2 19.01 31.2C16.54 31.2 14.7 29.82 14.7 27.36L16.88 27.36C16.89 28.57 17.78 29.33 19.07 29.33C20.46 29.33 21.24 28.44 21.25 26.76ZM30.62 24.63L29.08 24.63L29.21 21.63L26.68 23.26L25.91 21.91L28.6 20.54L25.91 19.17L26.68 17.82L29.21 19.45L29.08 16.45L30.62 16.45L30.49 19.45L33.01 17.82L33.79 19.17L31.1 20.54L33.79 21.91L33.01 23.26L30.49 21.63L30.62 24.63Z" fill="#FAFAFA" fill-opacity="1.000000" fill-rule="evenodd"/>
</svg>
